<svg xmlns="http://www.w3.org/2000/svg" xmlns:xlink="http://www.w3.org/1999/xlink" width="338.4" height="198" viewBox="0 0 338.4 198">
  <defs>
    <style>
      .a {
        fill: #fff;
      }

      .b {
        fill: url(#a);
      }

      .c {
        fill: #213f7d;
      }

      .d {
        fill: #88c76d;
      }

      .e {
        fill: #fff;
      }

      .f {
        fill: #70c5a2;
      }
    </style>
    <radialGradient id="a" cx="98.92" cy="99" r="98.11" gradientUnits="userSpaceOnUse">
      <stop offset="0" stop-color="#ee3780"/>
      <stop offset="0.15" stop-color="#e5337b"/>
      <stop offset="0.4" stop-color="#cd286e"/>
      <stop offset="0.71" stop-color="#a51759"/>
      <stop offset="1" stop-color="#7a0441"/>
    </radialGradient>
  </defs>
  <title>logo</title>
  <g>
    <rect class="a" width="338.4" height="198"/>
    <g>
      <path class="b" d="M195.71,103.57l-.83-13.41,1-6.6h0A98.21,98.21,0,1,0,197,103.7Z"/>
      <g>
        <path class="c" d="M209.21,16.38c-.16-.49-.34-1-.52-1.44s-.35-1-.51-1.46H203c-.16.5-.33,1-.5,1.47s-.35,1-.51,1.43h-2.33c.46-1.31.9-2.53,1.31-3.64s.82-2.17,1.22-3.16.79-1.94,1.18-2.84.79-1.79,1.21-2.66h2.13c.42.87.82,1.76,1.21,2.66s.78,1.85,1.18,2.84.8,2.05,1.22,3.16.87,2.33,1.33,3.64Zm-3.63-9.93c-.27.63-.58,1.39-.93,2.29s-.71,1.88-1.09,2.93h4.05q-.57-1.58-1.11-2.94c-.35-.91-.66-1.67-.92-2.28"/>
        <path class="c" d="M223.66,16.64a6.9,6.9,0,0,1-2.48-.42A5,5,0,0,1,219.31,15a5.51,5.51,0,0,1-1.17-2,8.43,8.43,0,0,1-.41-2.73,7.53,7.53,0,0,1,.47-2.74,6.1,6.1,0,0,1,1.29-2,5.28,5.28,0,0,1,1.92-1.25,6.34,6.34,0,0,1,2.36-.43,7.24,7.24,0,0,1,1.38.12,7.63,7.63,0,0,1,1.09.26,4,4,0,0,1,.76.3l.43.23-.66,1.82a5.5,5.5,0,0,0-1.22-.5,5.84,5.84,0,0,0-1.71-.24,4.07,4.07,0,0,0-1.49.27,3.32,3.32,0,0,0-1.2.83,3.87,3.87,0,0,0-.79,1.38,6.05,6.05,0,0,0-.28,1.94A6.7,6.7,0,0,0,220.3,12a4,4,0,0,0,.68,1.42,3.22,3.22,0,0,0,1.17.92,4,4,0,0,0,1.71.33,6.4,6.4,0,0,0,1.93-.24A7.13,7.13,0,0,0,227,14l.6,1.83a2.82,2.82,0,0,1-.58.29,9,9,0,0,1-.86.27,9.26,9.26,0,0,1-1.12.22,11,11,0,0,1-1.33.07"/>
        <path class="c" d="M232.21,4.08q.39.68.87,1.65c.32.65.65,1.33,1,2.05s.66,1.44,1,2.18.63,1.42.9,2l.89-2c.32-.74.64-1.47,1-2.18s.66-1.4,1-2,.61-1.2.87-1.65h2c.11.9.22,1.85.31,2.86s.19,2.05.26,3.11.16,2.12.22,3.19.13,2.12.17,3.14h-2.2c0-1.43-.11-2.91-.17-4.42s-.17-3-.3-4.4l-.46,1c-.18.38-.37.79-.57,1.24l-.61,1.37c-.21.48-.41.93-.6,1.38s-.38.86-.55,1.24l-.42,1h-1.67l-.43-1c-.16-.39-.34-.81-.54-1.25s-.4-.9-.6-1.38-.41-.93-.61-1.36-.39-.85-.57-1.24-.33-.7-.47-1c-.13,1.42-.23,2.88-.29,4.4s-.13,3-.17,4.42h-2.2c0-1,.1-2.07.17-3.16s.13-2.17.21-3.24.17-2.11.26-3.12.2-1.93.31-2.78Z"/>
        <path class="c" d="M253.4,16.38c-.17-.49-.34-1-.52-1.44s-.35-1-.51-1.46h-5.2q-.25.75-.51,1.47c-.17.48-.34,1-.5,1.43h-2.33c.46-1.31.9-2.53,1.31-3.64s.82-2.17,1.22-3.16.78-1.94,1.18-2.84.79-1.79,1.2-2.66h2.14c.41.87.81,1.76,1.21,2.66s.78,1.85,1.17,2.84.81,2.05,1.23,3.16.86,2.33,1.32,3.64Zm-3.63-9.93c-.27.63-.58,1.39-.93,2.29s-.72,1.88-1.1,2.93h4c-.38-1.05-.74-2-1.1-2.94s-.66-1.67-.92-2.28"/>
        <path class="c" d="M267.85,16.64a7,7,0,0,1-2.49-.42A5,5,0,0,1,263.5,15a5.51,5.51,0,0,1-1.17-2,8.43,8.43,0,0,1-.41-2.73,7.53,7.53,0,0,1,.47-2.74,5.79,5.79,0,0,1,1.29-2,5.33,5.33,0,0,1,1.91-1.25A6.4,6.4,0,0,1,268,3.79a7.31,7.31,0,0,1,1.38.12,7.47,7.47,0,0,1,1.08.26,3.87,3.87,0,0,1,.77.3l.42.23L271,6.52a5.71,5.71,0,0,0-1.22-.5A5.89,5.89,0,0,0,268,5.78a4,4,0,0,0-1.49.27,3.24,3.24,0,0,0-1.2.83,3.87,3.87,0,0,0-.79,1.38,6,6,0,0,0-.29,1.94,7.13,7.13,0,0,0,.22,1.79,4,4,0,0,0,.69,1.42,3.22,3.22,0,0,0,1.17.92,4,4,0,0,0,1.7.33,6.47,6.47,0,0,0,1.94-.24,6.62,6.62,0,0,0,1.15-.46l.61,1.83a3.11,3.11,0,0,1-.58.29c-.24.09-.53.18-.86.27a9.26,9.26,0,0,1-1.12.22,11.14,11.14,0,0,1-1.33.07"/>
        <path class="c" d="M281.77,11.73a6,6,0,0,1-.32,2,4.57,4.57,0,0,1-.91,1.55,4,4,0,0,1-1.41,1,4.76,4.76,0,0,1-3.63,0,4.1,4.1,0,0,1-1.4-1,4.59,4.59,0,0,1-.92-1.55,5.79,5.79,0,0,1-.32-2,5.75,5.75,0,0,1,.32-2,4.5,4.5,0,0,1,.93-1.54,4,4,0,0,1,1.41-1,4.54,4.54,0,0,1,1.79-.35,4.62,4.62,0,0,1,1.8.35,4,4,0,0,1,1.41,1,4.48,4.48,0,0,1,.92,1.54,5.75,5.75,0,0,1,.33,2m-2.2,0a3.56,3.56,0,0,0-.6-2.19,2.11,2.11,0,0,0-3.32,0,3.56,3.56,0,0,0-.59,2.19,3.7,3.7,0,0,0,.59,2.22A2.11,2.11,0,0,0,279,14a3.7,3.7,0,0,0,.6-2.22"/>
        <path class="c" d="M289.28,11.5a4.57,4.57,0,0,0-.37-2.11,1.42,1.42,0,0,0-1.36-.65,5.77,5.77,0,0,0-.78.06l-.64.09v7.49H284v-9a14.59,14.59,0,0,1,1.62-.33,13.12,13.12,0,0,1,2.12-.16,4.1,4.1,0,0,1,1.57.25,3.07,3.07,0,0,1,1,.65,4.41,4.41,0,0,1,.49-.3,4.79,4.79,0,0,1,.68-.29,6.07,6.07,0,0,1,.79-.22,3.93,3.93,0,0,1,.84-.09,4.37,4.37,0,0,1,1.78.31,2.61,2.61,0,0,1,1.1.87,3.44,3.44,0,0,1,.56,1.35,10.18,10.18,0,0,1,.14,1.73v5.22h-2.14V11.5a4.59,4.59,0,0,0-.36-2.11,1.41,1.41,0,0,0-1.36-.65,2.88,2.88,0,0,0-1,.17,3.19,3.19,0,0,0-.69.33,5.59,5.59,0,0,1,.19.94,9,9,0,0,1,.05,1.07v5.13h-2.14Z"/>
        <path class="c" d="M307.7,11.74a6.68,6.68,0,0,1-.27,2,4.48,4.48,0,0,1-.79,1.52,3.46,3.46,0,0,1-1.29,1,4.56,4.56,0,0,1-3,.19,4.23,4.23,0,0,1-.91-.35v3.6h-2.15V7.4c.44-.12,1-.23,1.62-.34a11.9,11.9,0,0,1,2-.16,5.5,5.5,0,0,1,2,.33,4.09,4.09,0,0,1,2.42,2.5,5.58,5.58,0,0,1,.33,2m-2.2,0a3.44,3.44,0,0,0-.65-2.24,2.52,2.52,0,0,0-2.08-.8l-.63,0a3.55,3.55,0,0,0-.65.12V14.2a3.76,3.76,0,0,0,.75.36,3.06,3.06,0,0,0,1,.17,1.92,1.92,0,0,0,1.71-.8,3.78,3.78,0,0,0,.54-2.15"/>
        <path class="c" d="M313,6.86a5.15,5.15,0,0,1,1.79.27,2.79,2.79,0,0,1,1.17.75A2.65,2.65,0,0,1,316.59,9a5.8,5.8,0,0,1,.19,1.5v5.63c-.34.07-.84.15-1.51.25a15.28,15.28,0,0,1-2.26.15,6.72,6.72,0,0,1-1.53-.16,3.09,3.09,0,0,1-1.18-.51,2.44,2.44,0,0,1-.76-.92,3.28,3.28,0,0,1-.27-1.41,2.7,2.7,0,0,1,.31-1.35,2.47,2.47,0,0,1,.84-.89,3.66,3.66,0,0,1,1.23-.5,7,7,0,0,1,1.47-.15,6.34,6.34,0,0,1,.74,0,5.85,5.85,0,0,1,.84.16v-.36a2.76,2.76,0,0,0-.09-.71,1.46,1.46,0,0,0-.31-.59,1.38,1.38,0,0,0-.59-.4,2.37,2.37,0,0,0-.91-.15,8.27,8.27,0,0,0-1.37.11,5.5,5.5,0,0,0-1,.25l-.27-1.74A7.29,7.29,0,0,1,311.34,7,8.87,8.87,0,0,1,313,6.86m.18,8a8.11,8.11,0,0,0,1.51-.11V12.38a4.4,4.4,0,0,0-.52-.1,4.18,4.18,0,0,0-.74-.06,4.37,4.37,0,0,0-.72.06,2.3,2.3,0,0,0-.66.19,1.31,1.31,0,0,0-.47.4,1.11,1.11,0,0,0-.18.65,1.15,1.15,0,0,0,.48,1.06,2.55,2.55,0,0,0,1.3.29"/>
        <path class="c" d="M319.4,7.4A13.13,13.13,0,0,1,321,7.06a13.44,13.44,0,0,1,2.2-.16,5,5,0,0,1,1.9.31,3,3,0,0,1,1.21.87A3.14,3.14,0,0,1,327,9.43a7.16,7.16,0,0,1,.19,1.73v5.22H325V11.5a6.6,6.6,0,0,0-.1-1.27,2.34,2.34,0,0,0-.31-.86,1.4,1.4,0,0,0-.61-.48,2.76,2.76,0,0,0-.93-.14,6.24,6.24,0,0,0-.85.05,6.63,6.63,0,0,0-.66.09v7.49H319.4Z"/>
        <path class="c" d="M337.09,7.09a67,67,0,0,1-3.34,9.59,10.13,10.13,0,0,1-.72,1.37,4.05,4.05,0,0,1-.84.94,2.91,2.91,0,0,1-1,.54,4.75,4.75,0,0,1-1.32.17,4.6,4.6,0,0,1-1-.11,3.45,3.45,0,0,1-.74-.23l.39-1.72a3.42,3.42,0,0,0,1.27.25,2,2,0,0,0,1.31-.4,3.39,3.39,0,0,0,.83-1.24q-1-2-2-4.26a46.11,46.11,0,0,1-1.66-4.9h2.29c.12.5.26,1,.43,1.62s.36,1.17.57,1.76.41,1.2.64,1.79.45,1.14.67,1.65c.38-1.05.73-2.17,1.07-3.36s.62-2.34.9-3.46Z"/>
        <path class="c" d="M204,34.88a3,3,0,0,0,1.76-.41,1.36,1.36,0,0,0,.55-1.15,1.43,1.43,0,0,0-.19-.76,1.81,1.81,0,0,0-.53-.58,4.44,4.44,0,0,0-.85-.48,10.82,10.82,0,0,0-1.13-.43q-.65-.24-1.23-.51a4,4,0,0,1-1-.68,3.22,3.22,0,0,1-.73-1,3.15,3.15,0,0,1-.28-1.37,3.23,3.23,0,0,1,1.16-2.62,4.82,4.82,0,0,1,3.14-.95,7.5,7.5,0,0,1,2.05.26,6.14,6.14,0,0,1,1.41.56l-.69,1.81a5.49,5.49,0,0,0-1.32-.51,6.12,6.12,0,0,0-1.48-.18,2.42,2.42,0,0,0-1.42.37,1.25,1.25,0,0,0-.5,1.05,1.3,1.3,0,0,0,.17.7,1.8,1.8,0,0,0,.47.53,5,5,0,0,0,.73.42,8.81,8.81,0,0,0,.92.37c.58.22,1.1.43,1.55.65a4.53,4.53,0,0,1,1.16.78,3.08,3.08,0,0,1,.71,1.07,3.85,3.85,0,0,1,.25,1.48,3.07,3.07,0,0,1-1.18,2.58,5.52,5.52,0,0,1-3.45.92,8.48,8.48,0,0,1-1.39-.1,8.68,8.68,0,0,1-1.12-.24,6.23,6.23,0,0,1-.84-.29,3.79,3.79,0,0,1-.57-.28l.65-1.83a7.75,7.75,0,0,0,1.3.54,6.31,6.31,0,0,0,2,.26"/>
        <path class="c" d="M218.46,31.9a6.1,6.1,0,0,1-.32,2,4.23,4.23,0,0,1-.91,1.54,4.13,4.13,0,0,1-1.4,1,4.74,4.74,0,0,1-1.83.35,4.64,4.64,0,0,1-1.81-.35,4.13,4.13,0,0,1-1.4-1,4.52,4.52,0,0,1-.91-1.54,6.26,6.26,0,0,1,0-4,4.44,4.44,0,0,1,.92-1.53,4.1,4.1,0,0,1,1.41-1A4.57,4.57,0,0,1,214,27a4.67,4.67,0,0,1,1.81.34,3.92,3.92,0,0,1,1.41,1,4.57,4.57,0,0,1,.91,1.53,5.79,5.79,0,0,1,.33,2m-2.2,0a3.6,3.6,0,0,0-.6-2.19,2.11,2.11,0,0,0-3.32,0,3.67,3.67,0,0,0-.59,2.19,3.73,3.73,0,0,0,.59,2.22,2.09,2.09,0,0,0,3.32,0,3.66,3.66,0,0,0,.6-2.22"/>
        <path class="c" d="M219.72,31.92A5.79,5.79,0,0,1,220,30a4.46,4.46,0,0,1,.92-1.55,4.08,4.08,0,0,1,1.44-1,4.73,4.73,0,0,1,1.92-.37,6.72,6.72,0,0,1,2.49.47l-.47,1.76a5.55,5.55,0,0,0-.84-.26,4.57,4.57,0,0,0-1-.11,2.35,2.35,0,0,0-1.92.79,3.39,3.39,0,0,0-.66,2.23,3.54,3.54,0,0,0,.62,2.19,2.5,2.5,0,0,0,2.1.81,6,6,0,0,0,2-.37l.3,1.77a4.29,4.29,0,0,1-1.08.32,7.21,7.21,0,0,1-1.48.14,5.47,5.47,0,0,1-2.07-.36,3.9,3.9,0,0,1-1.45-1,4,4,0,0,1-.86-1.55,6.36,6.36,0,0,1-.29-1.94"/>
        <path class="c" d="M230.92,24.55a1.24,1.24,0,0,1-.39,1,1.31,1.31,0,0,1-.92.35,1.32,1.32,0,0,1-.94-.35,1.24,1.24,0,0,1-.39-1,1.27,1.27,0,0,1,.39-1,1.37,1.37,0,0,1,.94-.35,1.35,1.35,0,0,1,.92.35,1.27,1.27,0,0,1,.39,1m-.23,12h-2.14V27.27h2.14Z"/>
        <path class="c" d="M232.82,32a5.64,5.64,0,0,1,.37-2.14,4.36,4.36,0,0,1,1-1.54,4,4,0,0,1,1.38-.92,4.22,4.22,0,0,1,1.6-.31,3.8,3.8,0,0,1,3,1.19,5.16,5.16,0,0,1,1.07,3.55c0,.12,0,.25,0,.4s0,.28,0,.39H235a2.46,2.46,0,0,0,.79,1.74,3,3,0,0,0,2,.61,6.93,6.93,0,0,0,1.43-.14,6.57,6.57,0,0,0,1-.3l.29,1.75a3.91,3.91,0,0,1-.49.19l-.71.18-.86.13a7.3,7.3,0,0,1-.94.05,5.72,5.72,0,0,1-2.13-.36,3.9,3.9,0,0,1-1.49-1,4,4,0,0,1-.87-1.53,6.2,6.2,0,0,1-.29-1.93m6.23-.95a3,3,0,0,0-.12-.85,2.05,2.05,0,0,0-.36-.69A1.66,1.66,0,0,0,238,29a1.9,1.9,0,0,0-.82-.17,1.87,1.87,0,0,0-.88.19,2.11,2.11,0,0,0-.63.48,2.29,2.29,0,0,0-.39.7,3.13,3.13,0,0,0-.2.8Zm.36-7.53-2.89,2.8-1.07-1,2.61-3.1Z"/>
        <path class="c" d="M243.28,24.82l2.15-.36v2.81h3.3v1.79h-3.3v3.78a2.81,2.81,0,0,0,.35,1.6,1.41,1.41,0,0,0,1.21.48,3.65,3.65,0,0,0,1-.13,5.16,5.16,0,0,0,.72-.23l.35,1.71c-.25.1-.57.21-1,.33a5.47,5.47,0,0,1-1.42.17,4.4,4.4,0,0,1-1.66-.27,2.5,2.5,0,0,1-1.06-.77,3.15,3.15,0,0,1-.55-1.23,7.41,7.41,0,0,1-.16-1.64Z"/>
        <path class="c" d="M250,32a5.64,5.64,0,0,1,.37-2.14,4.36,4.36,0,0,1,1-1.54,4,4,0,0,1,1.38-.92,4.22,4.22,0,0,1,1.6-.31,3.8,3.8,0,0,1,3,1.19,5.16,5.16,0,0,1,1.07,3.55c0,.12,0,.25,0,.4s0,.28,0,.39h-6.13a2.46,2.46,0,0,0,.79,1.74,3,3,0,0,0,2,.61,6.93,6.93,0,0,0,1.43-.14,6.57,6.57,0,0,0,1-.3l.29,1.75a3.91,3.91,0,0,1-.49.19l-.71.18-.86.13a7.3,7.3,0,0,1-.94.05,5.72,5.72,0,0,1-2.13-.36,3.9,3.9,0,0,1-1.49-1,4.13,4.13,0,0,1-.87-1.53A6.2,6.2,0,0,1,250,32m6.23-.95a3,3,0,0,0-.12-.85,2.05,2.05,0,0,0-.36-.69,1.66,1.66,0,0,0-.59-.46,1.9,1.9,0,0,0-.82-.17,1.87,1.87,0,0,0-.88.19,2.11,2.11,0,0,0-.63.48,2.29,2.29,0,0,0-.39.7,3.61,3.61,0,0,0-.2.8Zm.36-7.53-2.89,2.8-1.07-1,2.61-3.1Z"/>
        <path class="c" d="M273,36.27a11.62,11.62,0,0,1-1.6.35,12.22,12.22,0,0,1-2,.16,5.54,5.54,0,0,1-2-.33,4.19,4.19,0,0,1-1.48-1A4.24,4.24,0,0,1,265,34a5.8,5.8,0,0,1-.33-2,6.58,6.58,0,0,1,.28-2,4.27,4.27,0,0,1,.81-1.54,3.57,3.57,0,0,1,1.29-1,4.25,4.25,0,0,1,1.76-.35,3.94,3.94,0,0,1,1.19.16,5.86,5.86,0,0,1,.89.36V23.13l2.14-.35Zm-6.16-4.39a3.38,3.38,0,0,0,.68,2.23,2.29,2.29,0,0,0,1.86.81,7.34,7.34,0,0,0,.88,0l.6-.1V29.45a3.38,3.38,0,0,0-.76-.36,2.77,2.77,0,0,0-1-.17,2,2,0,0,0-1.72.8,3.79,3.79,0,0,0-.54,2.16"/>
        <path class="c" d="M275.16,32a5.84,5.84,0,0,1,.37-2.14,4.49,4.49,0,0,1,1-1.54,4.11,4.11,0,0,1,1.39-.92,4.22,4.22,0,0,1,1.6-.31,3.8,3.8,0,0,1,3,1.19,5.11,5.11,0,0,1,1.07,3.55c0,.12,0,.25,0,.4s0,.28,0,.39h-6.13a2.5,2.5,0,0,0,.79,1.74,3,3,0,0,0,2,.61,7.08,7.08,0,0,0,1.43-.14,6.74,6.74,0,0,0,1-.3l.29,1.75a3.91,3.91,0,0,1-.49.19l-.71.18-.86.13a7.3,7.3,0,0,1-.94.05,5.72,5.72,0,0,1-2.13-.36,4,4,0,0,1-1.49-1,4.13,4.13,0,0,1-.87-1.53,6.2,6.2,0,0,1-.29-1.93m6.23-.95a3,3,0,0,0-.12-.85,1.89,1.89,0,0,0-.36-.69,1.66,1.66,0,0,0-.59-.46,1.87,1.87,0,0,0-.82-.17,1.8,1.8,0,0,0-.87.19,2,2,0,0,0-.64.48,2.29,2.29,0,0,0-.39.7,3.61,3.61,0,0,0-.2.8Z"/>
        <path class="c" d="M293.54,36.73a5.78,5.78,0,0,1-1.59-.21,2.4,2.4,0,0,1-1-.56,2,2,0,0,1-.53-.91,4.6,4.6,0,0,1-.15-1.23V23.13l2.15-.35V33.41a3.1,3.1,0,0,0,.06.66,1.18,1.18,0,0,0,.22.45,1,1,0,0,0,.44.28,2.73,2.73,0,0,0,.7.15Z"/>
        <path class="c" d="M297.55,23.1l0,.44c0,.15,0,.28,0,.37a6.19,6.19,0,0,1-.42,2.05,7.45,7.45,0,0,1-.93,1.75l-1.56-.41a8.88,8.88,0,0,0,.55-1.65A7.57,7.57,0,0,0,295.4,24c0-.08,0-.21,0-.39a3.74,3.74,0,0,0,0-.49Z"/>
        <path class="c" d="M308.17,36.55c-.17-.48-.34-1-.52-1.44s-.35-1-.52-1.45h-5.19c-.17.5-.34,1-.51,1.46l-.51,1.43H298.6c.46-1.31.9-2.53,1.31-3.64s.82-2.16,1.21-3.16.79-1.94,1.18-2.84.8-1.78,1.21-2.66h2.14c.41.88.81,1.76,1.2,2.66s.79,1.85,1.18,2.84.81,2.05,1.23,3.16.86,2.33,1.32,3.64Zm-3.63-9.92c-.28.63-.59,1.39-.94,2.29s-.71,1.87-1.09,2.93h4.05c-.38-1.06-.75-2-1.1-3s-.66-1.67-.92-2.27"/>
        <path class="c" d="M315.26,24.25q.39.67.87,1.65c.32.65.64,1.34,1,2.05s.67,1.44,1,2.18.62,1.43.9,2.06l.88-2.06c.32-.74.65-1.46,1-2.18s.66-1.4,1-2.05.61-1.2.87-1.65h2c.11.9.21,1.85.31,2.87s.18,2.05.26,3.1.15,2.13.22,3.2.12,2.11.17,3.13h-2.2c-.05-1.43-.11-2.9-.17-4.42s-.17-3-.3-4.4c-.13.27-.29.6-.46,1s-.37.79-.57,1.23-.41.9-.61,1.38l-.61,1.37c-.19.45-.37.86-.54,1.24s-.31.72-.42,1h-1.67l-.43-1c-.17-.38-.35-.8-.54-1.25l-.61-1.37c-.2-.48-.41-.93-.61-1.37l-.57-1.23c-.17-.39-.33-.71-.46-1-.13,1.42-.23,2.89-.29,4.4s-.13,3-.18,4.42h-2.2c0-1,.11-2.07.17-3.16s.14-2.17.22-3.24.17-2.11.26-3.11.2-1.94.31-2.79Z"/>
        <path class="c" d="M333.64,36.82a6.78,6.78,0,0,1-2.49-.43,4.89,4.89,0,0,1-1.86-1.25,5.55,5.55,0,0,1-1.17-2,8.53,8.53,0,0,1-.41-2.74,7.43,7.43,0,0,1,.47-2.73,5.84,5.84,0,0,1,1.29-2,5.41,5.41,0,0,1,1.92-1.25,6.55,6.55,0,0,1,2.36-.43,7.24,7.24,0,0,1,1.38.12,8.61,8.61,0,0,1,1.08.26,3.87,3.87,0,0,1,.77.3l.42.23-.65,1.83a5.19,5.19,0,0,0-1.22-.51,5.84,5.84,0,0,0-1.71-.24,3.84,3.84,0,0,0-1.49.28,3.3,3.3,0,0,0-1.2.82,3.83,3.83,0,0,0-.79,1.39,6,6,0,0,0-.29,1.93,6.82,6.82,0,0,0,.23,1.8,3.86,3.86,0,0,0,.68,1.41,3.22,3.22,0,0,0,1.17.92,4,4,0,0,0,1.71.33,6.45,6.45,0,0,0,1.93-.24,8.34,8.34,0,0,0,1.16-.45l.6,1.83a2.86,2.86,0,0,1-.58.28c-.24.09-.53.19-.86.28a7.73,7.73,0,0,1-1.12.21,11.06,11.06,0,0,1-1.33.08"/>
        <path class="c" d="M176,34.55a.87.87,0,1,1,1.23.05.91.91,0,0,1-.6.23.82.82,0,0,1-.63-.28m2.3-2.13a.85.85,0,0,1,0-1.23.83.83,0,0,1,1.21,0,.85.85,0,0,1,0,1.23,1,1,0,0,1-.6.24.84.84,0,0,1-.63-.28m2.27-2.14a.88.88,0,0,1,0-1.23.86.86,0,0,1,1.23,0,.87.87,0,0,1-.05,1.23.8.8,0,0,1-.58.26.91.91,0,0,1-.65-.28m2.3-2.14a.9.9,0,0,1,.05-1.25.87.87,0,0,1,1.18,1.28.82.82,0,0,1-.6.23.89.89,0,0,1-.63-.26m2.3-2.15a.87.87,0,0,1,1.28-1.19.88.88,0,0,1-.05,1.23.81.81,0,0,1-.6.23.85.85,0,0,1-.63-.27"/>
        <path class="c" d="M195.3,21A4.35,4.35,0,1,1,191,16.61,4.36,4.36,0,0,1,195.3,21"/>
      </g>
      <path class="d" d="M127.93,5.18l.3.09Z"/>
      <path class="d" d="M122.85,3.76l1.15.3Z"/>
      <path class="e" d="M183.93,79a21,21,0,0,0-7.32,1.36,22.36,22.36,0,0,0-6.78,4A25.23,25.23,0,0,0,164.41,91a27.49,27.49,0,0,0-3.22,9.29,25.13,25.13,0,0,0-.15,8.18,14.11,14.11,0,0,0,2.74,6.56,14.43,14.43,0,0,0,5.85,4.35,23,23,0,0,0,9.08,1.59,41.37,41.37,0,0,0,4.29-.22c1.44-.15,2.79-.34,4.07-.57s4.1-1,4.37-1l-.87-9c-.76.2-1.59.38-2.48.55a34.14,34.14,0,0,1-6.2.57c-3.23,0-5.69-.69-7.38-2a6.19,6.19,0,0,1-2.31-5.53H197c.08-1.57.12-3.14.12-4.72a98.18,98.18,0,0,0-1.22-15.44C193.18,80.54,189.21,79,183.93,79Zm4.52,17H173.52a19.48,19.48,0,0,1,1.21-2.85,9.94,9.94,0,0,1,1.82-2.46,8.59,8.59,0,0,1,2.57-1.7,8.34,8.34,0,0,1,3.37-.65,6.52,6.52,0,0,1,3.18.68,5.44,5.44,0,0,1,1.9,1.75,5.71,5.71,0,0,1,.87,2.42A11,11,0,0,1,188.45,96Z"/>
      <path class="d" d="M99,.83h0A98.15,98.15,0,0,0,1.15,91.52,98.18,98.18,0,0,1,99,.83Z"/>
      <path class="d" d="M103.83,1c1.23.06,2.45.15,3.66.25C106.28,1.1,105.06,1,103.83,1Z"/>
      <path class="d" d="M113.35,1.88c1,.15,2,.31,3,.49C115.38,2.19,114.37,2,113.35,1.88Z"/>
      <path class="d" d="M99.06.83c1.38,0,2.74,0,4.1.1C101.8.87,100.44.83,99.06.83Z"/>
      <path class="d" d="M108.61,1.3c1.11.11,2.22.24,3.32.38C110.83,1.54,109.72,1.41,108.61,1.3Z"/>
      <path class="d" d="M118.08,2.7l1.81.37Z"/>
      <path class="e" d="M53.17,80.23l-8.12,34a23.84,23.84,0,0,1-1.39,4.21,9.21,9.21,0,0,1-1.92,2.82,6.57,6.57,0,0,1-2.67,1.58,12,12,0,0,1-3.65.49,12.13,12.13,0,0,1-5.07-1,23.93,23.93,0,0,1-3.82-2.16l-2.35,10.5a24,24,0,0,0,3.46,1.48,23.69,23.69,0,0,0,7.71,1.24,27.52,27.52,0,0,0,8.57-1.17,15.85,15.85,0,0,0,5.94-3.38,17.4,17.4,0,0,0,3.91-5.34,33.28,33.28,0,0,0,2.41-7l8.73-36.33Z"/>
      <polygon class="e" points="156.03 55.07 141.3 120.67 152.82 120.67 167.54 55.07 156.03 55.07"/>
      <path class="e" d="M101.15,84.9A12.78,12.78,0,0,0,96,80.69a17.48,17.48,0,0,0-7.51-1.51,22.42,22.42,0,0,0-8.14,1.51,24.68,24.68,0,0,0-7.15,4.21,26.53,26.53,0,0,0-5.58,6.54,28.39,28.39,0,0,0-3.45,8.5,23.76,23.76,0,0,0-.56,8.54,14.85,14.85,0,0,0,2.45,6.62,12.55,12.55,0,0,0,5.14,4.24,17.65,17.65,0,0,0,7.58,1.51,23,23,0,0,0,8.36-1.51,23.93,23.93,0,0,0,7.12-4.24,25.86,25.86,0,0,0,5.46-6.62,30.65,30.65,0,0,0,3.34-8.54,23.55,23.55,0,0,0,.55-8.5A14.5,14.5,0,0,0,101.15,84.9Zm-9.52,15a18,18,0,0,1-4,8.24,8.67,8.67,0,0,1-6.61,3q-3.84,0-5.24-3t-.19-8.24a17.4,17.4,0,0,1,4-8.16,8.83,8.83,0,0,1,6.64-3q3.83,0,5.21,3C92.38,93.76,92.44,96.48,91.63,99.94Z"/>
      <path class="e" d="M61.44,75.13A6.54,6.54,0,1,0,54.9,68.6,6.53,6.53,0,0,0,61.44,75.13Z"/>
      <path class="d" d="M1.14,106.24A98.14,98.14,0,0,0,99,197.17h0A98.17,98.17,0,0,1,1.14,106.24Z"/>
      <path class="e" d="M134.6,80.23l-7.25,30.91h-4.92c-2.6,0-4.2-.8-4.78-2.41s-.44-4.21.4-7.82l4.81-20.69h-11.2l-5.14,22a31.25,31.25,0,0,0-.9,7.45,11.89,11.89,0,0,0,1.42,5.83,9.16,9.16,0,0,0,4.42,3.79,19.92,19.92,0,0,0,8.07,1.36l16.69,0,9.59-40.45Z"/>
      <path class="f" d="M197,103.72A98.13,98.13,0,0,1,99,197.17h0a98.16,98.16,0,0,0,98.05-93.45Z"/>
      <path class="f" d="M111.93,1.68l1.42.2Z"/>
      <path class="f" d="M107.49,1.2l1.12.1Z"/>
      <path class="f" d="M99,.83h0Z"/>
      <path class="f" d="M103.16.93l.67,0Z"/>
      <path class="f" d="M124,4.06c1.32.35,2.63.72,3.93,1.12C126.63,4.78,125.32,4.4,124,4.06Z"/>
      <path class="f" d="M195.87,83.56a.93.93,0,0,1,.14.14A98.26,98.26,0,0,0,128.23,5.27,98.26,98.26,0,0,1,195.87,83.56Z"/>
      <path class="f" d="M1.15,91.52C1,94,.87,96.48.87,99s.09,4.85.27,7.24C1,103.85.87,101.43.87,99S1,94,1.15,91.52Z"/>
      <path class="f" d="M116.38,2.37c.57.1,1.14.22,1.7.33C117.52,2.59,117,2.47,116.38,2.37Z"/>
      <path class="f" d="M119.89,3.07c1,.22,2,.45,3,.69C121.87,3.52,120.88,3.29,119.89,3.07Z"/>
    </g>
  </g>
</svg>
