<svg id="Layer_1" data-name="Layer 1" xmlns="http://www.w3.org/2000/svg" viewBox="0 0 146 146"><defs><style>.cls-1,.cls-2{fill:none;}.cls-1{stroke:#e82a75;stroke-width:3px;}.cls-2{stroke:#d6006d;stroke-linecap:round;stroke-linejoin:round;stroke-width:2.5px;}</style></defs><title>Artboard 1 copy 5</title><path class="cls-1" d="M143.78,72.82A70.5,70.5,0,1,1,73.27,2.33a70.51,70.51,0,0,1,70.51,70.49"/><path class="cls-2" d="M93.36,44a11.83,11.83,0,0,1,11.83,11.83V96a11.83,11.83,0,0,1-11.83,11.83H53.19A11.83,11.83,0,0,1,41.36,96V55.85A11.83,11.83,0,0,1,53.19,44"/><line class="cls-2" x1="65.75" y1="44.02" x2="80.66" y2="44.02"/><line class="cls-2" x1="41.36" y1="60.76" x2="105.19" y2="60.76"/><line class="cls-2" x1="55" y1="78.69" x2="91.56" y2="78.69"/><line class="cls-2" x1="65.71" y1="89.84" x2="81.28" y2="89.84"/><line class="cls-2" x1="59.39" y1="51.59" x2="59.39" y2="37.8"/><line class="cls-2" x1="87.16" y1="51.59" x2="87.16" y2="37.8"/></svg>