<svg id="Layer_1" data-name="Layer 1" xmlns="http://www.w3.org/2000/svg" viewBox="0 0 146 146"><defs><style>.cls-1,.cls-2,.cls-3{fill:none;}.cls-1{stroke:#e82a75;stroke-width:3px;}.cls-2,.cls-3{stroke:#d6006d;stroke-linecap:round;stroke-linejoin:round;}.cls-2{stroke-width:2.5px;}.cls-3{stroke-width:2px;}</style></defs><title>Artboard 1 copy 2</title><path class="cls-1" d="M143.33,72.83a70.5,70.5,0,1,1-70.5-70.5,70.5,70.5,0,0,1,70.5,70.5"/><path class="cls-2" d="M53.55,44.82a4.6,4.6,0,0,1-4.6,4.6h-1a4.6,4.6,0,0,1-4.6-4.6V38.88a4.6,4.6,0,0,1,4.6-4.6h1a4.6,4.6,0,0,1,4.6,4.6Z"/><path class="cls-2" d="M46.33,49.53v2.26S36.93,53.9,37,55.93V79.36h5V64.79"/><path class="cls-2" d="M58.2,38.18h49.58V78.36h-52v-17l9.69,6.59L77,61.66V57.49L66.55,61.14l-6.69-5.21c-3.23-2.62-9.33-4.14-9.33-4.14"/><path class="cls-2" d="M53.93,95.59a4.79,4.79,0,0,1-4.8,4.8H48.05a4.81,4.81,0,0,1-4.81-4.8v-6.2a4.81,4.81,0,0,1,4.81-4.8h1.08a4.79,4.79,0,0,1,4.8,4.8Z"/><path class="cls-2" d="M46.4,100.51v2.36s-9.82,2.19-9.74,4.32v2.12"/><path class="cls-2" d="M50.78,102.87s9.81,2.19,9.74,4.32v2.12"/><path class="cls-2" d="M72.25,84.59h1.08a4.81,4.81,0,0,1,4.81,4.81v6.19a4.81,4.81,0,0,1-4.81,4.81H72.24a4.8,4.8,0,0,1-4.8-4.8v-6.2a4.81,4.81,0,0,1,4.81-4.81Z"/><path class="cls-2" d="M70.6,100.51v2.36s-9.82,2.19-9.74,4.32v2.12"/><path class="cls-2" d="M75,102.87s9.81,2.19,9.74,4.32v2.12"/><path class="cls-2" d="M102.33,95.59a4.79,4.79,0,0,1-4.8,4.8H96.45a4.81,4.81,0,0,1-4.81-4.8v-6.2a4.81,4.81,0,0,1,4.81-4.8h1.08a4.79,4.79,0,0,1,4.8,4.8Z"/><path class="cls-2" d="M94.8,100.51v2.36s-9.82,2.19-9.74,4.32v2.12"/><path class="cls-2" d="M99.18,102.87s9.81,2.19,9.74,4.32v2.12"/><polyline class="cls-3" points="99.32 50.48 99.32 69.53 81.64 69.53"/><line class="cls-3" x1="83.36" y1="54.2" x2="95.6" y2="54.2"/><line class="cls-3" x1="83.36" y1="59.27" x2="95.6" y2="59.27"/><line class="cls-3" x1="83.36" y1="64.34" x2="95.6" y2="64.34"/></svg>