<svg id="Layer_1" data-name="Layer 1" xmlns="http://www.w3.org/2000/svg" viewBox="0 0 146 146"><defs><style>.cls-1,.cls-3,.cls-4{fill:none;}.cls-1{stroke:#e82a75;stroke-width:3px;}.cls-2{fill:#d6006d;}.cls-3,.cls-4{stroke:#d6006d;stroke-linecap:round;stroke-linejoin:round;}.cls-3{stroke-width:2.5px;}.cls-4{stroke-width:2px;}</style></defs><title>Artboard 1 copy 3</title><path class="cls-1" d="M142.89,72.87a70.5,70.5,0,1,1-70.5-70.5,70.5,70.5,0,0,1,70.5,70.5"/><path class="cls-2" d="M113,104H31.75L25,97.21V92.15H62.63l3,3h13.6l3-3h37.68v5.06ZM33,101h78.84L116.87,96v-.87H83.38l-3,3H64.36l-3-3H27.91V96Z"/><path class="cls-2" d="M112.42,92.15h-3V47.67a3,3,0,0,0-3-3v-3a5.94,5.94,0,0,1,5.93,5.93Z"/><path class="cls-2" d="M107.57,44.71H38.29a3,3,0,0,0-3,3V92.15h-3V47.67a5.94,5.94,0,0,1,5.93-5.93h68.56"/><path class="cls-3" d="M66.07,65.31a6.32,6.32,0,0,1-6.32,6.33H58.32A6.33,6.33,0,0,1,52,65.31V57.16a6.33,6.33,0,0,1,6.33-6.32h1.43a6.32,6.32,0,0,1,6.32,6.32Z"/><path class="cls-3" d="M56.15,71.79v3.1s-12.92,2.9-12.82,5.69v2.8H59"/><path class="cls-3" d="M61.92,74.89s12.91,2.9,12.82,5.69v2.8H59"/><polyline class="cls-4" points="102.29 61.17 102.29 82.41 82.57 82.41"/><line class="cls-4" x1="84.48" y1="65.32" x2="98.14" y2="65.32"/><line class="cls-4" x1="84.48" y1="70.98" x2="98.14" y2="70.98"/><line class="cls-4" x1="84.48" y1="76.63" x2="98.14" y2="76.63"/></svg>