<svg id="Layer_1" data-name="Layer 1" xmlns="http://www.w3.org/2000/svg" viewBox="0 0 146 146"><defs><style>.cls-1,.cls-2{fill:none;}.cls-1{stroke:#e82a75;stroke-width:3px;}.cls-2{stroke:#d6006d;stroke-linecap:round;stroke-linejoin:round;stroke-width:2.5px;}</style></defs><title>Artboard 1 copy 8</title><path class="cls-1" d="M143,73.18A70.5,70.5,0,1,1,72.51,2.69,70.5,70.5,0,0,1,143,73.18"/><path class="cls-2" d="M31.17,80.06a12.61,12.61,0,1,0,17.84,0A12.61,12.61,0,0,0,31.17,80.06Z"/><path class="cls-2" d="M96,80.06a12.61,12.61,0,1,0,17.84,0A12.61,12.61,0,0,0,96,80.06Z"/><path class="cls-2" d="M63.57,42.48a12.61,12.61,0,1,0,17.84,0A12.61,12.61,0,0,0,63.57,42.48Z"/><line class="cls-2" x1="49.01" y1="80.06" x2="63.57" y2="60.32"/><line class="cls-2" x1="81.41" y1="60.32" x2="96.01" y2="80.06"/></svg>