<svg id="Layer_1" data-name="Layer 1" xmlns="http://www.w3.org/2000/svg" viewBox="0 0 146 146"><defs><style>.cls-1,.cls-2{fill:none;}.cls-1{stroke:#e82a75;stroke-width:3px;}.cls-2{stroke:#d6006d;stroke-linecap:round;stroke-linejoin:round;stroke-width:2.5px;}</style></defs><title>Artboard 1 copy 9</title><path class="cls-1" d="M143.84,72.94a70.5,70.5,0,1,1-70.5-70.5,70.5,70.5,0,0,1,70.5,70.5"/><rect class="cls-2" x="65.48" y="36.65" width="29.6" height="43.75" rx="13.3" ry="13.3"/><path class="cls-2" d="M86.36,87.24s27.16,6.08,27,12v5.88H47.25V99.21c-.19-5.89,27-12,27-12V79.46"/><path class="cls-2" d="M61,79.14H58.61A10.64,10.64,0,0,1,48,68.5V54.78A10.65,10.65,0,0,1,58.61,44.13H61"/><path class="cls-2" d="M54.94,78.48v6.14S33.21,89.48,33.37,94.2v11"/></svg>