<svg id="Layer_1" data-name="Layer 1" xmlns="http://www.w3.org/2000/svg" viewBox="0 0 146 146"><defs><style>.cls-1,.cls-2{fill:none;}.cls-1{stroke:#e82a75;stroke-width:3px;}.cls-2{stroke:#d6006d;stroke-linecap:round;stroke-linejoin:round;stroke-width:2.5px;}</style></defs><title>Artboard 1 copy 11</title><path class="cls-1" d="M143.33,72.83a70.5,70.5,0,1,1-70.5-70.5,70.5,70.5,0,0,1,70.5,70.5"/><rect class="cls-2" x="63.7" y="71.2" width="18.26" height="26.99" rx="8.2" ry="8.2"/><path class="cls-2" d="M76.58,102.41s16.76,3.76,16.63,7.38v3.63H52.45v-3.63c-.12-3.62,16.64-7.38,16.64-7.38v-4.8"/><path class="cls-2" d="M58,97.42H56.54A6.57,6.57,0,0,1,50,90.85V82.39a6.57,6.57,0,0,1,6.57-6.57H58"/><path class="cls-2" d="M54.28,97v3.78s-13.4,3-13.31,5.91v6.81"/><path class="cls-2" d="M87.64,97.42h1.49a6.56,6.56,0,0,0,6.56-6.57V82.39a6.56,6.56,0,0,0-6.56-6.57H87.64"/><path class="cls-2" d="M91.39,97v3.78s13.4,3,13.3,5.91v6.81"/><path class="cls-2" d="M72.15,32.16H96.83a5.48,5.48,0,0,1,5.49,5.48V51.36a5.48,5.48,0,0,1-5.49,5.48H91.35V63.7a1.37,1.37,0,0,1-2.47.82l-5.76-7.68H76.26l-2.81,8.44a1.37,1.37,0,0,1-2.6,0L68,56.84H61.18l-5.76,7.68A1.37,1.37,0,0,1,53,63.7V56.84H48.84a5.48,5.48,0,0,1-5.49-5.48V37.64a5.48,5.48,0,0,1,5.49-5.48Z"/></svg>