<svg id="Layer_1" data-name="Layer 1" xmlns="http://www.w3.org/2000/svg" viewBox="0 0 146 146"><defs><style>.cls-1,.cls-2{fill:none;}.cls-1{stroke:#e82a75;stroke-width:3px;}.cls-2{stroke:#d6006d;stroke-linecap:round;stroke-linejoin:round;stroke-width:2.5px;}</style></defs><title>Artboard 1 copy 7</title><path class="cls-1" d="M143.42,73A70.5,70.5,0,1,1,72.91,2.51,70.5,70.5,0,0,1,143.42,73"/><path class="cls-2" d="M59.65,87.11c-.2-1.15-.36-2.42-.47-3.85C58.33,72.51,49,65,49,56.29a23.89,23.89,0,0,1,47.77,0c0,8.76-8.47,16.4-9.55,27-.14,1.4-.32,2.66-.51,3.8L65.21,92.8s-3.33.74-2.87,3.48S66,99.47,68.72,98.1l6.39-1.36s7.3-2.74,7.75.91c0,0,1.37,2.74-3.19,4.1L70.55,104s-4.58,1-4.85,4c-.17,1.89.29,5.54,7.13,5.54"/><line class="cls-2" x1="63.09" y1="60.91" x2="71.34" y2="90.96"/><line class="cls-2" x1="82.74" y1="61.3" x2="74.94" y2="90.19"/></svg>