<svg id="icon" data-name="instagram" class="icon ico-instagram" xmlns="http://www.w3.org/2000/svg" viewBox="0 0 146 146">
  <defs>
    <style>
      .in-cl-1{fill:#a43d96;}
      .in-cl-2{
      fill:none;
      stroke:#a43d96;
      stroke-miterlimit:10;
      stroke-width:5px;}
    </style>
  </defs>
  <path class="in-cl-1" d="M73 44.25c9.1 0 10.18 0 13.78.2a18.71 18.71 0 0 1 6.33 1.18A10.36 10.36 0 0 1 97 48.18a10.52 10.52 0 0 1 2.55 3.92 18.72 18.72 0 0 1 1.17 6.33c.17 3.59.2 4.67.2 13.77s0 10.19-.2 13.78a18.72 18.72 0 0 1-1.17 6.33A10.61 10.61 0 0 1 97 96.23a10.36 10.36 0 0 1-3.92 2.55 18.71 18.71 0 0 1-6.3 1.22c-3.6.16-4.68.2-13.78.2s-10.18 0-13.78-.2a18.71 18.71 0 0 1-6.33-1.18A10.36 10.36 0 0 1 49 96.23a10.61 10.61 0 0 1-2.55-3.92 18.72 18.72 0 0 1-1.2-6.31c-.17-3.59-.2-4.67-.2-13.78s0-10.18.2-13.77a18.72 18.72 0 0 1 1.17-6.33A10.52 10.52 0 0 1 49 48.18a10.36 10.36 0 0 1 3.92-2.55 18.71 18.71 0 0 1 6.33-1.18c3.6-.16 4.68-.2 13.78-.2m0-6.14c-9.26 0-10.42 0-14.06.2a25.1 25.1 0 0 0-8.27 1.59 16.65 16.65 0 0 0-6 3.93 16.85 16.85 0 0 0-3.94 6 25.25 25.25 0 0 0-1.58 8.28c-.17 3.63-.21 4.79-.21 14.05s0 10.43.21 14.06a25.25 25.25 0 0 0 1.58 8.28 16.85 16.85 0 0 0 3.94 6 16.65 16.65 0 0 0 6 3.93 25.1 25.1 0 0 0 8.27 1.59c3.64.16 4.8.2 14.06.2s10.42 0 14.06-.2a25.1 25.1 0 0 0 8.27-1.59 16.65 16.65 0 0 0 6-3.93 16.85 16.85 0 0 0 3.94-6 25.25 25.25 0 0 0 1.58-8.28c.17-3.63.21-4.8.21-14.06s0-10.42-.21-14.05a25.25 25.25 0 0 0-1.58-8.28 16.85 16.85 0 0 0-3.94-6 16.65 16.65 0 0 0-6-3.93 25.1 25.1 0 0 0-8.27-1.59c-3.64-.16-4.8-.2-14.06-.2z"/>
  <path class="in-cl-1" d="M73 54.7a17.51 17.51 0 1 0 17.51 17.5A17.51 17.51 0 0 0 73 54.7zm0 28.87A11.37 11.37 0 1 1 84.37 72.2 11.37 11.37 0 0 1 73 83.57z"/>
  <circle class="in-cl-1" cx="91.2" cy="54" r="4.09"/>
  <circle class="in-cl-2" cx="72.84" cy="73.01" r="67.01"/>
</svg>