<svg id="Layer_1" data-name="Layer 1" xmlns="http://www.w3.org/2000/svg" viewBox="0 0 146 146"><defs><style>.cls-1,.cls-2{fill:none;stroke-width:3px;}.cls-1{stroke:#e82a75;}.cls-2{stroke:#d6006d;stroke-linecap:round;stroke-linejoin:round;}</style></defs><title>Artboard 1 copy</title><path class="cls-1" d="M144,73.1A70.5,70.5,0,1,1,73.44,2.61,70.51,70.51,0,0,1,144,73.1"/><path class="cls-2" d="M73.44,38.86a34.25,34.25,0,1,0,34.24,34.25A34.24,34.24,0,0,0,73.44,38.86Z"/><path class="cls-2" d="M73.44,56.33A16.78,16.78,0,1,0,90.22,73.11,16.78,16.78,0,0,0,73.44,56.33Z"/><line class="cls-2" x1="73.44" y1="38.86" x2="73.44" y2="26.88"/><line class="cls-2" x1="73.44" y1="119.33" x2="73.44" y2="107.35"/><line class="cls-2" x1="39.2" y1="73.11" x2="27.23" y2="73.11"/><line class="cls-2" x1="119.67" y1="73.11" x2="107.68" y2="73.11"/></svg>